<svg width="517" height="513" viewBox="0 0 517 513" fill="none" xmlns="http://www.w3.org/2000/svg">
  <path opacity="0.5" d="M328.763 28.4419C419.09 28.4419 492.315 102.976 492.315 194.919C492.315 286.861 419.09 361.395 328.763 361.395C238.436 361.395 165.212 286.861 165.212 194.919C165.212 102.976 238.436 28.4419 328.763 28.4419Z" fill="#FB6B6B"/>
  <path opacity="0.5" d="M270.933 180.047C361.26 180.047 434.484 254.581 434.484 346.523C434.484 438.466 361.26 513 270.933 513C180.606 513 107.381 438.466 107.381 346.523C107.381 254.581 180.606 180.047 270.933 180.047Z" fill="#6B93FB"/>
  <path opacity="0.5" d="M167.551 87.3037C257.878 87.3037 331.103 161.838 331.103 253.78C331.103 345.723 257.878 420.257 167.551 420.257C77.2244 420.257 4 345.723 4 253.78C4 161.838 77.2244 87.3037 167.551 87.3037Z" fill="#6BFB9C"/>
  <path opacity="0.5" d="M328.763 28.4482C419.09 28.4482 492.315 102.982 492.315 194.925C492.315 286.867 419.09 361.401 328.763 361.401C238.436 361.401 165.212 286.867 165.212 194.925C165.212 102.982 238.436 28.4482 328.763 28.4482Z" fill="#FB6B6B"/>
  <path opacity="0.5" d="M270.933 180.047C361.26 180.047 434.484 254.581 434.484 346.523C434.484 438.466 361.26 513 270.933 513C180.606 513 107.381 438.466 107.381 346.523C107.381 254.581 180.606 180.047 270.933 180.047Z" fill="#6B93FB"/>
  <path opacity="0.5" d="M167.551 87.3037C257.878 87.3037 331.103 161.838 331.103 253.78C331.103 345.723 257.878 420.257 167.551 420.257C77.2244 420.257 4 345.723 4 253.78C4 161.838 77.2244 87.3037 167.551 87.3037Z" fill="#6BFB9C"/>
  <path d="M162.117 329.606C162.083 350.255 153.452 369.958 138.296 383.982V383.982C90.7144 428.009 13.5165 394.19 13.6222 329.364L13.8608 182.994C13.8944 162.345 22.5257 142.643 37.6817 128.619V128.619C85.2629 84.5911 162.461 118.41 162.355 183.236L162.117 329.606Z" stroke="black" stroke-width="24.7" stroke-linecap="round" stroke-linejoin="round"/>
  <path d="M503.485 330.168C503.452 350.817 494.82 370.519 479.664 384.543V384.543C432.083 428.571 354.885 394.752 354.991 329.926L355.229 183.555C355.263 162.906 363.894 143.204 379.05 129.18V129.18C426.632 85.1526 503.829 118.972 503.724 183.797L503.485 330.168Z" stroke="black" stroke-width="24.7" stroke-linecap="round" stroke-linejoin="round"/>
  <path d="M503.997 13.5563L336.927 13.2873C240.665 13.1324 162.503 91.128 162.346 187.497L162.34 191.118C162.186 285.491 238.482 362.119 332.749 362.27C427.013 362.422 503.553 286.045 503.707 191.676L503.997 13.5563ZM503.997 13.5563L412.001 111.245M162.346 320.005C162.346 430.525 13.3442 499.606 13.3442 499.606M13.3442 499.606L232.05 499.958C299.794 500.067 354.8 445.178 354.911 377.358L355.079 273.969C355.19 206.148 300.359 151.078 232.613 150.969L136.574 150.815C68.8295 150.706 13.8235 205.595 13.7129 273.414L13.3442 499.606Z" stroke="black" stroke-width="24.7" stroke-linecap="round" stroke-linejoin="round"/>
</svg>
