<svg width="256" height="256" viewBox="0 0 256 256" fill="none" xmlns="http://www.w3.org/2000/svg">
  <path opacity="0.5" d="M159.341 21.8628C201.625 21.8628 235.902 56.7534 235.902 99.793C235.902 142.833 201.625 177.723 159.341 177.723C117.058 177.723 82.78 142.833 82.78 99.793C82.78 56.7534 117.058 21.8628 159.341 21.8628Z" fill="#FB6B6B"/>
  <path opacity="0.5" d="M132.268 92.823C174.552 92.823 208.829 127.714 208.829 170.753C208.829 213.793 174.552 248.683 132.268 248.683C89.9846 248.683 55.707 213.793 55.707 170.753C55.707 127.714 89.9846 92.823 132.268 92.823Z" fill="#6B93FB"/>
  <path opacity="0.5" d="M83.8754 49.4118C126.159 49.4118 160.436 84.3023 160.436 127.342C160.436 170.382 126.159 205.272 83.8754 205.272C41.5918 205.272 7.3143 170.382 7.3143 127.342C7.3143 84.3023 41.5918 49.4118 83.8754 49.4118Z" fill="#6BFB9C"/>
  <path opacity="0.5" d="M159.341 21.8628C201.625 21.8628 235.902 56.7534 235.902 99.793C235.902 142.833 201.625 177.723 159.341 177.723C117.058 177.723 82.78 142.833 82.78 99.793C82.78 56.7534 117.058 21.8628 159.341 21.8628Z" fill="#FB6B6B"/>
  <path opacity="0.5" d="M132.268 92.823C174.552 92.823 208.829 127.714 208.829 170.753C208.829 213.793 174.552 248.683 132.268 248.683C89.9846 248.683 55.707 213.793 55.707 170.753C55.707 127.714 89.9846 92.823 132.268 92.823Z" fill="#6B93FB"/>
  <path opacity="0.5" d="M83.8754 49.4118C126.159 49.4118 160.436 84.3023 160.436 127.342C160.436 170.382 126.159 205.272 83.8754 205.272C41.5918 205.272 7.3143 170.382 7.3143 127.342C7.3143 84.3023 41.5918 49.4118 83.8754 49.4118Z" fill="#6BFB9C"/>
  <path d="M81.3306 162.837C81.3149 172.503 77.2744 181.726 70.1796 188.291V188.291C47.9061 208.901 11.7685 193.069 11.818 162.723L11.9297 94.2053C11.9454 84.5392 15.9859 75.3162 23.0807 68.7513V68.7513C45.3542 48.1414 81.4918 63.9726 81.4423 94.3185L81.3306 162.837Z" stroke="black" stroke-width="15" stroke-linecap="round" stroke-linejoin="round"/>
  <path d="M241.13 163.1C241.114 172.766 237.074 181.989 229.979 188.554V188.554C207.705 209.163 171.568 193.332 171.617 162.986L171.729 94.4681C171.745 84.802 175.785 75.579 182.88 69.0141V69.0141C205.153 48.4042 241.291 64.2355 241.242 94.5814L241.13 163.1Z" stroke="black" stroke-width="15" stroke-linecap="round" stroke-linejoin="round"/>
  <path d="M241.371 14.8918L163.162 14.7659C118.101 14.6933 81.5119 51.2042 81.4384 96.316L81.4356 98.0112C81.3636 142.188 117.079 178.059 161.207 178.13C205.333 178.201 241.163 142.448 241.235 98.2722L241.371 14.8918ZM241.371 14.8918L198.306 60.6215M81.4384 158.345C81.4384 210.081 11.6881 242.419 11.6881 242.419M11.6881 242.419L114.068 242.584C145.78 242.635 171.529 216.94 171.581 185.193L171.66 136.795C171.712 105.047 146.045 79.2679 114.331 79.2168L69.3738 79.1444C37.6617 79.0934 11.9124 104.788 11.8607 136.535L11.6881 242.419Z" stroke="black" stroke-width="15" stroke-linecap="round" stroke-linejoin="round"/>
</svg>
