<svg width="256" height="256" viewBox="0 0 256 256" fill="none" xmlns="http://www.w3.org/2000/svg">
  <path d="M82.0782 162.308C82.0622 172.121 77.9604 181.484 70.7577 188.149C48.1458 209.072 11.4591 193 11.5093 162.193L11.6227 92.6337C11.6387 82.8207 15.7406 73.4576 22.9432 66.7929C45.5551 45.8698 82.2418 61.9417 82.1916 92.7487L82.0782 162.308Z" fill="white"/>
  <path d="M82.0782 162.308C82.0622 172.121 77.9604 181.484 70.7577 188.149C48.1458 209.072 11.4591 193 11.5093 162.193L11.6227 92.6337C11.6387 82.8207 15.7406 73.4576 22.9432 66.7929C45.5551 45.8698 82.2418 61.9417 82.1916 92.7487L82.0782 162.308Z" fill="url(#paint0_linear)" fill-opacity="0.5"/>
  <path d="M244.304 162.576C244.288 172.389 240.186 181.752 232.984 188.417C210.372 209.34 173.685 193.268 173.735 162.461L173.848 92.9019C173.864 83.0889 177.966 73.7258 185.169 67.0611C207.781 46.1381 244.468 62.2099 244.417 93.0169L244.304 162.576Z" fill="white"/>
  <path d="M244.304 162.576C244.288 172.389 240.186 181.752 232.984 188.417C210.372 209.34 173.685 193.268 173.735 162.461L173.848 92.9019C173.864 83.0889 177.966 73.7258 185.169 67.0611C207.781 46.1381 244.468 62.2099 244.417 93.0169L244.304 162.576Z" fill="url(#paint1_linear)" fill-opacity="0.5"/>
  <path d="M244.41 96.7628C244.337 141.61 207.963 177.906 163.166 177.834C118.367 177.762 82.1092 141.346 82.1823 96.4978L82.1851 94.7768C82.2598 48.9796 119.405 11.9139 165.151 11.9875L244.548 12.1154L244.41 96.7628Z" fill="white"/>
  <path d="M244.41 96.7628C244.337 141.61 207.963 177.906 163.166 177.834C118.367 177.762 82.1092 141.346 82.1823 96.4978L82.1851 94.7768C82.2598 48.9796 119.405 11.9139 165.151 11.9875L244.548 12.1154L244.41 96.7628Z" fill="url(#paint2_linear)" fill-opacity="0.5"/>
  <path d="M173.697 185.004C173.645 217.234 147.504 243.319 115.31 243.267L11.375 243.1L11.5502 135.607C11.6027 103.377 37.7433 77.2925 69.9372 77.3443L115.578 77.4178C147.773 77.4696 173.83 103.64 173.778 135.871L173.697 185.004Z" fill="white"/>
  <path d="M173.697 185.004C173.645 217.234 147.504 243.319 115.31 243.267L11.375 243.1L11.5502 135.607C11.6027 103.377 37.7433 77.2925 69.9372 77.3443L115.578 77.4178C147.773 77.4696 173.83 103.64 173.778 135.871L173.697 185.004Z" fill="url(#paint3_linear)" fill-opacity="0.5"/>
  <path d="M244.548 12.1154L165.151 11.9875C119.405 11.9139 82.2598 48.9796 82.1851 94.7768L82.1823 96.4978C82.1092 141.346 118.367 177.762 163.166 177.834C207.963 177.906 244.337 141.61 244.41 96.7628L244.548 12.1154ZM244.548 12.1154L200.828 58.5399M82.1851 157.749C82.1851 210.271 11.375 243.1 11.375 243.1M11.375 243.1L115.31 243.267C147.504 243.319 173.645 217.234 173.697 185.004L173.778 135.871C173.83 103.64 147.773 77.4696 115.578 77.4178L69.9372 77.3443C37.7433 77.2925 11.6027 103.377 11.5502 135.607L11.375 243.1ZM11.6246 92.6318L11.5112 162.191C11.461 192.998 48.1476 209.07 70.7596 188.147C77.9622 181.482 82.0641 172.119 82.0801 162.306L82.1934 92.7469C82.2436 61.9398 45.557 45.8679 22.945 66.791C15.7424 73.4556 11.6406 82.8188 11.6246 92.6318ZM173.849 92.9006L173.736 162.46C173.686 193.267 210.372 209.339 232.984 188.416C240.187 181.751 244.289 172.388 244.305 162.575L244.418 93.0156C244.468 62.2086 207.782 46.1367 185.17 67.0598C177.967 73.7244 173.865 83.0876 173.849 92.9006Z" stroke="black" stroke-width="12.8" stroke-linecap="round" stroke-linejoin="round"/>
  <defs>
    <linearGradient id="paint0_linear" x1="11.375" y1="127.627" x2="244.548" y2="127.627" gradientUnits="userSpaceOnUse">
      <stop stop-color="#FBE46B"/>
      <stop offset="0.50305" stop-color="#FB6B6B"/>
      <stop offset="1" stop-color="#BC6BFB"/>
    </linearGradient>
    <linearGradient id="paint1_linear" x1="11.375" y1="127.627" x2="244.548" y2="127.627" gradientUnits="userSpaceOnUse">
      <stop stop-color="#FBE46B"/>
      <stop offset="0.50305" stop-color="#FB6B6B"/>
      <stop offset="1" stop-color="#BC6BFB"/>
    </linearGradient>
    <linearGradient id="paint2_linear" x1="11.375" y1="127.627" x2="244.548" y2="127.627" gradientUnits="userSpaceOnUse">
      <stop stop-color="#FBE46B"/>
      <stop offset="0.50305" stop-color="#FB6B6B"/>
      <stop offset="1" stop-color="#BC6BFB"/>
    </linearGradient>
    <linearGradient id="paint3_linear" x1="11.375" y1="127.627" x2="244.548" y2="127.627" gradientUnits="userSpaceOnUse">
      <stop stop-color="#FBE46B"/>
      <stop offset="0.50305" stop-color="#FB6B6B"/>
      <stop offset="1" stop-color="#BC6BFB"/>
    </linearGradient>
  </defs>
</svg>
