<?xml version="1.0" standalone="no"?>
<!DOCTYPE svg PUBLIC "-//W3C//DTD SVG 20010904//EN"
 "http://www.w3.org/TR/2001/REC-SVG-20010904/DTD/svg10.dtd">
<svg version="1.0" xmlns="http://www.w3.org/2000/svg"
 width="700.000000pt" height="700.000000pt" viewBox="0 0 700.000000 700.000000"
 preserveAspectRatio="xMidYMid meet">
<metadata>
Created by potrace 1.14, written by Peter Selinger 2001-2017
</metadata>
<g transform="translate(0.000000,700.000000) scale(0.100000,-0.100000)"
fill="#000000" stroke="none">
<path d="M4368 6844 c-2 -1 -41 -5 -88 -9 -47 -3 -105 -10 -130 -15 -25 -5
-61 -11 -80 -14 -19 -3 -73 -15 -120 -26 -47 -12 -94 -23 -104 -25 -48 -11
-190 -62 -286 -102 -376 -160 -718 -423 -976 -753 -126 -161 -263 -399 -333
-580 -18 -47 -40 -102 -48 -122 l-15 -37 -26 32 c-136 166 -372 318 -577 372
-412 108 -819 -3 -1118 -306 -149 -151 -269 -380 -303 -575 -2 -13 -7 -36 -10
-51 -14 -63 -23 -4292 -9 -4333 13 -42 48 -81 90 -102 40 -21 49 -21 1535 -22
1326 -1 1615 3 1662 19 7 2 31 7 53 10 180 26 449 135 637 257 361 236 636
615 744 1030 23 89 25 99 39 195 4 29 9 53 11 53 1 0 20 -16 41 -36 116 -108
358 -232 508 -260 17 -3 37 -7 45 -9 276 -57 598 11 844 178 249 168 416 422
482 732 17 84 22 660 24 3422 1 900 0 934 -18 976 -20 44 -56 78 -102 93 -21
6 -2365 15 -2372 8z"/>
</g>
</svg>
